# xmcd
#
# Track frame offsets: 
#        182
#        13275
#        28940
#        63417
#        97102
#        107882
#        125302
#        147677
#        168792
#        182927
#        200652
#        226917
#        243837
#        258187
#        272472
#
# Disc length: 3814 seconds
#
# Revision: 0
# Processed by: cddbd v1.4PL0 Copyright (c) Steve Scherf et al.
# Submitted via: ExactAudioCopy v0.90b4
#
DISCID=d80ee40f
DTITLE=Various Artist - Mississippi Blues - New Orleans To Chicago (2
DTITLE=)
DYEAR=1900
DGENRE=Blues
TTITLE0=Hey Little Girl - Blind Joe Hill
TTITLE1=Key To The Highway - Blind Joe Hill
TTITLE2=She's Bad - Blind Joe Hill
TTITLE3=Go To The Mardi Gras - Professor Longhair
TTITLE4=Big Chief - Professor Longhair
TTITLE5=Keep On Drifting - Champion Jack Dupree
TTITLE6=Junkers Blues - Champion Jack Dupree
TTITLE7=Take My Money - Rockin' Sidney
TTITLE8=No Blues At All - Rockin' Sidney
TTITLE9=Light In A Dark Place - T Bone Singleton
TTITLE10=Buster - Larry Garner
TTITLE11=Got You On My Mind - Fernest Arceneaux
TTITLE12=I Can't Live Happy - Victor Walker
TTITLE13=Mambo Mumbo - Louisiana Red
TTITLE14=Joe Pete - Al Rapone
EXTD=
EXTT0=
EXTT1=
EXTT2=
EXTT3=
EXTT4=
EXTT5=
EXTT6=
EXTT7=
EXTT8=
EXTT9=
EXTT10=
EXTT11=
EXTT12=
EXTT13=
EXTT14=
PLAYORDER=
